<?xml version="1.0" encoding="UTF-8"?>
<svg xmlns="http://www.w3.org/2000/svg" version="1.1" viewBox="0 0 1190.55 841.89">
  <defs>
    <style>
      .cls-1, .cls-2, .cls-3, .cls-4, .cls-5, .cls-6, .cls-7, .cls-8, .cls-9, .cls-10, .cls-11, .cls-12 {
        stroke-miterlimit: 10;
      }

      .cls-1, .cls-2, .cls-3, .cls-4, .cls-5, .cls-6, .cls-7, .cls-8, .cls-9, .cls-11, .cls-12 {
        stroke: #1d1d1b;
      }

      .cls-1, .cls-13, .cls-14, .cls-15, .cls-11, .cls-16 {
        fill: #010101;
      }

      .cls-2, .cls-10 {
        fill: #e47228;
      }

      .cls-3, .cls-5, .cls-8, .cls-11 {
        stroke-width: .25px;
      }

      .cls-3, .cls-7 {
        fill: #6cc2be;
      }

      .cls-4 {
        fill: #f9af2d;
      }

      .cls-13 {
        font-size: 4.75px;
      }

      .cls-13, .cls-14, .cls-15, .cls-16 {
        font-family: LucidaFax, 'Lucida Fax';
      }

      .cls-5, .cls-12 {
        fill: none;
      }

      .cls-6 {
        fill: #de5441;
      }

      .cls-8 {
        fill: #1e1e1c;
      }

      .cls-17 {
        fill: #00995e;
        font-family: Migoes, Migoes;
        font-size: 53.51px;
      }

      .cls-14 {
        font-size: 5.44px;
      }

      .cls-9 {
        fill: #c63;
      }

      .cls-10 {
        stroke: #000;
        stroke-width: 2px;
      }

      .cls-15 {
        font-size: 6.28px;
      }

      .cls-16 {
        font-size: 5.47px;
      }
    </style>
  </defs>
  <!-- Generator: Adobe Illustrator 28.6.0, SVG Export Plug-In . SVG Version: 1.2.0 Build 709)  -->
  <g>
    <g id="Laag_1">
      <path class="cls-10" d="M580.06,368.47"/>
      <path class="cls-3" d="M474.89,323.86"/>
      <path class="cls-3" d="M500.59,332.98"/>
      <path class="cls-4" d="M501.42,340.96c12.77,33.48,49.31,35.33,56.2,35.31,1.21,0,2.43.08,3.63.24,11.25,1.44,58.14,5.68,79.35-7.7,14.24-8.98,20.08-20.07,22.47-27.51,1.34-4.17-1.65-8.47-6.03-8.67-28.49-1.27-121.69-2.86-148.62-2.94-3.65-.01-9.45,4.88-7.01,11.27Z"/>
      <path class="cls-7" d="M557.29,376.55s-16.11-9.13-18.03-19.5c0,0-10.57-9.61-12.68-1.73,0,0,2.4,11.53,11,17.29l19.71,3.94Z"/>
      <path class="cls-7" d="M630.87,373.01c8.34-5.37,10.67-16.13,10.67-16.13-2.05-7.35-12.3,1.61-12.3,1.61-1.86,9.68-17.49,19.05-17.49,19.05l19.13-4.54Z"/>
      <path class="cls-7" d="M560.89,378.85v17.47c0,.46-.31.86-.76.96l-3.68.89c-.57.14-1.13-.3-1.13-.89v-14.21c0-.72,2.18-3.84,5.57-4.23,10.17-1.17,30.76,1.54,32.2,1.71,2.3.26,3.46-.19,6.03,4.06,1.79,2.96.87,12.78.32,17.38-.15,1.23.89,2.27,2.12,2.13l7.28-.82c1.29-.15,2.3-1.16,2.43-2.45.51-4.85,1.55-16.24.44-18.89-.1-.24-.17-.49-.16-.75.09-1.41-1.46-5.19-6.88-4.98l-46.25-.93c-2.85,1.25-3.11,7.78-3.11,7.78"/>
      <path class="cls-5" d="M657.48,531.69"/>
      <path class="cls-5" d="M660.55,530.49"/>
      <path class="cls-5" d="M661.07,523.76"/>
      <path class="cls-2" d="M601.69,408.02s43.61-15.13,43.61-4.38l-.6,116.06,1.96-.25s13.51,1.41,13.96,3.84c.45,2.43.45,4.43.45,4.43v3.12c0,.5-.33.94-.8,1.09l-12.58,3.84-90.1,34.36s-7.94,3.01-13.9.64c-5.96-2.37-26.58-7.62-26.58-7.62h-4.98c-.86,0-1.7-.18-2.54-.38-2.95-.71-11.99-2.88-17.23-5.96-.18-.1.78.47.81.4"/>
      <path class="cls-2" d="M534.37,409.3s12.49-7.35,29.06-.67c16.57,6.68,21.85,23.47,21.85,23.47,17.38,42.16-26,118.66-75.18,107.67"/>
      <path class="cls-12" d="M586.01,433.23"/>
      <path class="cls-9" d="M493.45,557.42s-2.87-1.31-3.19-3.55c-.63-.29-1.26-.58-1.89-.86-1.52-.69-3.04-1.39-4.56-2.09-1.85-.85-3.7-1.7-5.55-2.55-1.62-.75-3.24-1.5-4.85-2.26-.55-.26-1.1-.52-1.64-.79-.23-.11-.66-.23-.84-.43-.14-.15-.14-.49-.16-.7-.06-.45-.11-.9-.15-1.35-.1-1.1-.16-2.24.02-3.33.08-.49.21-1.05.57-1.42,1.3-1.3,16.95-7.11,18.35-6.72.27-.59.54-1.18.81-1.77.36-.79.8-1.58,1.09-2.4.13-.38-.48-1.04-.71-1.4s-.43-.71-.64-1.07c-.59-1.01-1.14-2.03-1.67-3.07-.7-1.4-1.36-2.82-1.96-4.26-.74-1.76-1.4-3.56-1.99-5.38-.68-2.11-1.27-4.25-1.75-6.41-.55-2.43-.97-4.89-1.26-7.36-.32-2.73-.49-5.48-.5-8.23-.01-3.01.16-6.03.51-9.02.39-3.28.99-6.53,1.79-9.73.88-3.52,2-6.98,3.33-10.36.66-1.67,1.36-3.33,2.12-4.96,18.96-40.98,44.88-46.45,44.88-46.45,0,0-2.1-11.53,21.53-14.12s27.3-3.87,27.3-3.87l59.36,8.71s.04.06,0,.06l-38.18,6.92c-2.01.35-3.68,1.73-4.41,3.63l-8.33,21.72"/>
      <path class="cls-9" d="M590.9,432.03c24.06,40.86-19.58,125.49-76.87,109.52,0,0-18.54-7.3-22.62-14.68"/>
      <path class="cls-2" d="M587.14,465.79s4.22-39.89-27.97-44.27c-.03,0-.09-.01-.12-.02-1.2-.23-24.09-4.15-44.32,21.63-10.48,13.36-16.32,29.82-16.66,46.79-.31,15.62,3.62,35.35,23.16,40.56"/>
      <path class="cls-2" d="M521.18,530.47s1.77.46,6.26.42c13.71-.13,21.4-3.34,32.65-11.93,12.86-9.82,25.52-29.98,27.09-53.67"/>
      <path class="cls-12" d="M591.23,432.1"/>
      <path class="cls-12" d="M591.23,432.1"/>
      <path class="cls-12" d="M585.28,432.1s3.45-2.26,6.33.39"/>
      <path class="cls-12" d="M660.55,524.93l-98.58,37.97s-8.16,4.13-19.79.96c.2,1.13-49.91-15.98-57.35-18.87-8.55-3.32-13.8-5.11-13.43-6.91"/>
      <path class="cls-6" d="M572.47,522.97c-4.62,4.94,1.4,8.97,7.58,7.96,1.63-.27,9.03-2.34,10.6-2.88,8.63-2.99,31.11-10.48,37.19-12.49,7.75-2.56,7.91-9.42,7.91-9.42,0,0,1.92-79.15,1.92-84.72s-6.15-4.23-6.15-4.23l-18.44,2.31c-6.15,1.73-7.25,3.99-7.25,3.99l-9,22.87s6.91,43.2-24.35,76.62Z"/>
      <path class="cls-12" d="M637.65,420.95s-12.97,1.3-19.39,2.25c-1.75.26-3.23.55-4.44,1.02-2.65,1.04-4.69,3.2-5.64,5.89l-10.38,28.07"/>
      <path class="cls-12" d="M577.99,516.21l-.92,5.41c-.18.84-.17,2.17-.26,3.03-.1.95-.52,3.46,2.65,2.64,7.1-1.84,55.79-18.5,55.79-18.5"/>
      <path class="cls-12" d="M573.53,524.34"/>
      <path class="cls-12" d="M573.53,527.16"/>
      <text class="cls-15" transform="translate(554.42 431.53) rotate(19.64)"><tspan x="0" y="0">3kg</tspan></text>
      <path class="cls-12" d="M557.06,534.91s-6.76,16.41-4.79,19.35c.64.95,84.26-31.52,92.66-34.58"/>
      <path class="cls-6" d="M538.08,493.44s-7.01,2.4-11.82-2.69l8.55-12.87s-2.55-7.01,3.89-8.93l.58-.24,11.72-30.55s-.22-1.73,1.32-2.7c0,0,3.99-8.6,5.28-10.14,0,0,.02,0,.01.01-.2.63-2.55,8.17-3.56,10.7,0,0,.18,1.53-.93,2.85l-10.98,30.42s.27,1.33.77,2.31c.53,1.03,2.83,4.28-3.7,7.92l-1.14,13.91Z"/>
      <path class="cls-7" d="M535.6,476.27c2.77.41,5.59-2.41,4.64-4.82-.68-1.71-2.95-2.07-4.25-.77-.94.94-1.89,2.3-1.83,3.97.03.81.64,1.5,1.44,1.62Z"/>
      <ellipse class="cls-12" cx="536.63" cy="472.96" rx="1.4" ry=".95" transform="translate(-161.06 630.71) rotate(-54.13)"/>
      <path class="cls-12" d="M563.39,518.12"/>
      <path class="cls-12" d="M588.45,453.61"/>
      <path class="cls-12" d="M588.45,458.18"/>
      <path class="cls-12" d="M587.53,462.74"/>
      <path class="cls-12" d="M588.45,464.11"/>
      <text class="cls-16" transform="translate(555.53 503.04) rotate(19.64)"><tspan x="0" y="0">1kg</tspan></text>
      <text class="cls-14" transform="translate(503.3 490.49) rotate(19.64) scale(.97 1)"><tspan x="0" y="0">2kg</tspan></text>
      <text class="cls-13" transform="translate(518.7 520.23) rotate(19.64) scale(1.04 1)"><tspan x="0" y="0">500</tspan></text>
      <line class="cls-11" x1="498.44" y1="492.05" x2="502.33" y2="490.53"/>
      <line class="cls-1" x1="564.86" y1="508.64" x2="567.42" y2="511.93"/>
      <line class="cls-1" x1="561.04" y1="427.41" x2="563.15" y2="422.29"/>
      <path class="cls-2" d="M641.54,400.36"/>
      <path class="cls-8" d="M570.47,535.86c0-.1-.03-.19-.07-.28-.05-.08-.11-.15-.2-.2-.12-.06-.25-.13-.37-.19-.06-.04-.13-.06-.2-.07-.07-.02-.15-.01-.22,0-.07.02-.13.05-.19.1-.06.04-.11.09-.14.15-.02.04-.04.09-.06.13-.03.1-.03.19,0,.29.02.04.04.09.06.13.01.02.02.03.04.05.01.07.03.13.06.19.03.05.06.09.09.13.03.04.06.08.1.12.05.05.11.09.17.14.03.02.05.03.08.05.06.04.13.06.2.07.07.02.15.01.22,0,.07-.02.13-.05.19-.1.06-.04.11-.09.14-.15.02-.04.04-.09.06-.13.02-.09.02-.17,0-.26.02-.06.03-.11.03-.17Z"/>
      <path class="cls-8" d="M492.37,526.89c-.05-.22-.13-.43-.24-.63-.1-.2-.24-.38-.39-.54-.09-.1-.25-.16-.39-.16-.11,0-.23.04-.33.11-.07.01-.14.03-.19.07-.12.08-.22.19-.25.33-.03.14-.02.3.06.42.2.31.39.61.59.92.08.12.19.21.33.25.13.04.31.02.42-.06.04-.02.07-.05.1-.08.1-.05.19-.12.24-.22.07-.13.09-.27.06-.42Z"/>
      <line class="cls-1" x1="520.13" y1="530.01" x2="522.23" y2="524.9"/>
      <path class="cls-4" d="M658.91,332.98s-72.9,21.01-153.34-2.49"/>
      <text class="cls-17" transform="translate(453.13 294.94)"><tspan x="0" y="0">Vintastic</tspan></text>
    </g>
  </g>
</svg>