<?xml version="1.0" encoding="UTF-8"?>
<svg xmlns="http://www.w3.org/2000/svg" version="1.1" viewBox="0 0 1190.55 841.89">
  <defs>
    <style>
      .cls-1 {
        fill: #58bfc6;
      }

      .cls-1, .cls-2 {
        stroke: #1e1f1d;
        stroke-miterlimit: 10;
      }

      .cls-2 {
        fill: #cb6734;
      }
    </style>
  </defs>
  <!-- Generator: Adobe Illustrator 28.6.0, SVG Export Plug-In . SVG Version: 1.2.0 Build 709)  -->
  <g>
    <g id="Laag_1">
      <g>
        <path class="cls-1" d="M562,371.04l-1.17-5.42s16.39,46.25-32.96,52.03c-49.36,5.77-26.05-52.3-12.47-50.91,0,0-44.03,13.91-41.61-17.26,2.42-31.17,33.99-38.64,43.54-29.91,0,0-41.79-13.42,10.42-41.84,0,0,66.56-13.47,40.75,27.82,0,0,56.29-28.18,55.41,5.42-.89,33.6-27.07,29.21-27.07,29.21,0,0,30.89,19.07-1.01,39.51,0,0-24.09,17.92-34.69-12.73"/>
        <path class="cls-2" d="M575.4,331.31c-2.72-9.32-20.21-15.4-31.05-12.23-10.84,3.17-20.72,16.78-18,26.1,2.72,9.32,18.34,16.41,29.18,13.24,10.84-3.17,22.59-17.79,19.87-27.11Z"/>
        <path class="cls-1" d="M550.55,439.91c-9.84,23.28-26.97,13.03-26.97,13.03,0,0,16.4,21.82-11.54,27.38,0,0-21.78,5.94-20.8-18.43"/>
        <path class="cls-1" d="M490.73,464.99l.67-4.12s-1.21,36.88-37.35,27.39c-36.14-9.49-3.89-43.76,5.23-39.07,0,0-34.64-2.34-24.4-23.5,10.24-21.16,34.4-17.73,38.69-9,0,0-25.58-20.85,18.77-26.44,0,0,50.3,8.82,20.9,30.65,0,0,47.14-4.29,37.31,18.99"/>
        <path class="cls-2" d="M511.01,440.85c.65-7.27-9.93-16.32-18.39-17.08-8.46-.76-19.11,6.06-19.76,13.34-.65,7.27,8.34,16.52,16.8,17.27,8.46.76,20.69-6.26,21.34-13.53Z"/>
        <path class="cls-1" d="M650.02,360.04l.37,5.11s-8.99-44.42,36.89-43.3c45.88,1.12,17.04,51.2,4.8,48.18,0,0,42.07-7.01,35.81,21.18-6.25,28.19-36.09,30.93-43.7,21.7,0,0,36.48,17.69-14.95,36.91,0,0-62.61,3.69-33.66-30.72,0,0-55.13,18.47-49.96-12.14,5.17-30.61,28.55-23.2,28.55-23.2,0,0-25.77-21.44,6.05-35.99,0,0,24.35-13.27,30.08,16.14"/>
        <path class="cls-2" d="M632.62,394.63c1.28,8.88,16.49,16.7,26.81,15.21s21.13-12.65,19.84-21.53c-1.28-8.88-14.65-17.38-24.97-15.89-10.32,1.49-22.96,13.33-21.68,22.21Z"/>
      </g>
    </g>
  </g>
</svg>