<?xml version="1.0" encoding="UTF-8"?>
<svg xmlns="http://www.w3.org/2000/svg" version="1.1" viewBox="0 0 328 240">
  <defs>
    <style>
      .cls-1 {
        fill: #cb6734;
      }

      .cls-1, .cls-2 {
        stroke: #1e1f1d;
        stroke-miterlimit: 10;
      }

      .cls-2 {
        fill: #58bfc6;
      }
    </style>
  </defs>
  <!-- Generator: Adobe Illustrator 28.6.0, SVG Export Plug-In . SVG Version: 1.2.0 Build 709)  -->
  <g>
    <g id="Laag_1">
      <g id="Laag_1-2" data-name="Laag_1">
        <g>
          <path class="cls-2" d="M150,108.2l-1.2-5.4s16.4,46.2-33,52c-49.4,5.8-26-52.3-12.5-50.9,0,0-44,13.9-41.6-17.3s34-38.6,43.5-29.9c0,0-41.8-13.4,10.4-41.8,0,0,66.6-13.5,40.8,27.8,0,0,56.3-28.2,55.4,5.4-.9,33.6-27.1,29.2-27.1,29.2,0,0,30.9,19.1-1,39.5,0,0-24.1,17.9-34.7-12.7"/>
          <path class="cls-1" d="M163.4,68.4c-2.7-9.3-20.2-15.4-31-12.2-10.8,3.2-20.7,16.8-18,26.1s18.3,16.4,29.2,13.2c10.8-3.2,22.6-17.8,19.9-27.1Z"/>
          <path class="cls-2" d="M138.5,177c-9.8,23.3-27,13-27,13,0,0,16.4,21.8-11.5,27.4,0,0-21.8,5.9-20.8-18.4"/>
          <path class="cls-2" d="M78.7,202.1l.7-4.1s-1.2,36.9-37.4,27.4c-36.1-9.5-3.9-43.8,5.2-39.1,0,0-34.6-2.3-24.4-23.5,10.2-21.2,34.4-17.7,38.7-9,0,0-25.6-20.9,18.8-26.4,0,0,50.3,8.8,20.9,30.6,0,0,47.1-4.3,37.3,19"/>
          <path class="cls-1" d="M99,178c.6-7.3-9.9-16.3-18.4-17.1-8.5-.8-19.1,6.1-19.8,13.3-.6,7.3,8.3,16.5,16.8,17.3,8.5.8,20.7-6.3,21.3-13.5h0Z"/>
          <path class="cls-2" d="M238,97.2l.4,5.1s-9-44.4,36.9-43.3c45.9,1.1,17,51.2,4.8,48.2,0,0,42.1-7,35.8,21.2-6.2,28.2-36.1,30.9-43.7,21.7,0,0,36.5,17.7-15,36.9,0,0-62.6,3.7-33.7-30.7,0,0-55.1,18.5-50-12.1s28.5-23.2,28.5-23.2c0,0-25.8-21.4,6-36,0,0,24.3-13.3,30.1,16.1"/>
          <path class="cls-1" d="M220.6,131.7c1.3,8.9,16.5,16.7,26.8,15.2s21.1-12.6,19.8-21.5c-1.3-8.9-14.7-17.4-25-15.9-10.3,1.5-23,13.3-21.7,22.2h0Z"/>
        </g>
      </g>
    </g>
  </g>
</svg>