<?xml version="1.0" encoding="UTF-8"?>
<svg xmlns="http://www.w3.org/2000/svg" version="1.1" viewBox="0 0 132.3 90">
  <defs>
    <style>
      .cls-1 {
        fill: #c63;
      }

      .cls-1, .cls-2 {
        stroke: #1e1e1c;
        stroke-miterlimit: 10;
      }

      .cls-2 {
        fill: #58bfc7;
      }
    </style>
  </defs>
  <!-- Generator: Adobe Illustrator 28.6.0, SVG Export Plug-In . SVG Version: 1.2.0 Build 709)  -->
  <g>
    <g id="Laag_1">
      <g>
        <path class="cls-2" d="M64.4,48.2v2.1c.1,0,1.2-18.6-17.4-15.4-18.6,3.1-3.9,21.8.9,19.8,0,0-17.5-.4-13.3,10.7,4.2,11.1,16.5,10.4,19,6.3,0,0-13.8,9.3,8.2,14.1,0,0,25.6-2.2,11.9-14.5,0,0,23.5,4.3,19.6-7.9-3.9-12.1-13-7.7-13-7.7,0,0,9.2-10.2-4.6-14.3,0,0-10.7-4-11.3,8.3"/>
        <path class="cls-1" d="M73.5,61.2c0,3.7-5.7,7.7-10,7.7s-9.3-3.9-9.3-7.6,4.9-7.9,9.2-7.9,10.1,4.1,10.1,7.7Z"/>
        <path class="cls-2" d="M52.9,24.4c-6.1-7.4-11.2-1.9-11.2-1.9,0,0,3.6-9.7-7.1-8.7,0,0-8.6.2-5.6,8.9"/>
        <path class="cls-2" d="M28.5,21.6l.7,1.4s-4.4-13.3-16.5-6c-12.1,7.3,3.2,16.3,6.1,13.7,0,0-12.4,4.5-6.4,11.1s14.4,2.8,15-.8c0,0-7.1,10.3,9.6,7.6,0,0,17.4-8.6,4.3-13.4,0,0,17.6-3.4,11.6-10.9"/>
        <path class="cls-1" d="M38.4,28.2c1,2.6-1.9,7-4.9,8.2s-7.6-.2-8.6-2.8,1.3-6.9,4.3-8.1,8.2,0,9.2,2.7Z"/>
        <path class="cls-2" d="M97.6,42.9l-.4-1.9s1.4,17.1,18,11.8c16.6-5.3.8-20.4-3.4-18,0,0,16-1.9,10.8-11.5s-16.4-7.4-18.2-3.3c0,0,11.4-10.3-9.4-11.8,0,0-23.2,5.3-9,14.8,0,0-22-.9-16.9,9.7s12.8,5.4,12.8,5.4c0,0-7.1,10.5,6,12.5,0,0,10.3,2.2,9.2-9.1"/>
        <path class="cls-1" d="M87.6,32.1c-.5-3.4,4.2-7.8,8.1-8.4s9,2.4,9.5,5.7c.5,3.4-3.5,7.9-7.4,8.4s-9.8-2.4-10.2-5.8Z"/>
      </g>
    </g>
  </g>
</svg>