<?xml version="1.0" encoding="UTF-8"?>
<svg xmlns="http://www.w3.org/2000/svg" version="1.1" viewBox="0 0 1190.6 841.9">
  <defs>
    <style>
      .cls-1 {
        fill: #b5c1cb;
        stroke: #1e1e1c;
        stroke-width: 8px;
      }

      .cls-1, .cls-2 {
        stroke-miterlimit: 10;
      }

      .cls-3 {
        fill: #1d1d1b;
        font-family: MilkyVintage, 'Milky Vintage';
        font-size: 133px;
      }

      .cls-2 {
        fill: #fff;
        stroke: #1d1d1b;
        stroke-width: 6px;
      }
    </style>
  </defs>
  <!-- Generator: Adobe Illustrator 28.6.0, SVG Export Plug-In . SVG Version: 1.2.0 Build 709)  -->
  <g>
    <g id="Laag_1">
      <g>
        <rect class="cls-1" x="-1284.5" y="585.6" width="728.4" height="445.4"/>
        <path class="cls-2" d="M-936.3,587.4l22.9,481.2s-33-88,277.6-142.4v-413.9s-216.9-30.8-300.4,75.1Z"/>
        <path class="cls-2" d="M-916.7,1057l.8,5.7.2-2.3c-.9-2.8,0,.4-1-3.4-27.6-102.4-303.4-122.2-303.4-122.2l-11-423.6s238.9-1.8,295.6,77.7l19.6,473.7"/>
        <text class="cls-3" transform="translate(-1149.4 806.4)"><tspan x="0" y="0">HVA</tspan></text>
        <text class="cls-3" transform="translate(-883.7 806.4)"><tspan x="0" y="0">CMD</tspan></text>
      </g>
      <g>
        <rect class="cls-1" x="230.6" y="222.6" width="728.4" height="445.4"/>
        <path class="cls-2" d="M578.8,224.3l22.9,481.2s-33-88,277.6-142.4V149.2s-216.9-30.8-300.4,75.1Z"/>
        <path class="cls-2" d="M598.4,694l.8,5.7.2-2.3c-.9-2.8,0,.4-1-3.4-27.6-102.4-303.4-122.2-303.4-122.2l-11-423.6s238.9-1.8,295.6,77.7l19.6,473.7"/>
        <text class="cls-3" transform="translate(365.7 443.3)"><tspan x="0" y="0">HVA</tspan></text>
        <text class="cls-3" transform="translate(631.3 443.3)"><tspan x="0" y="0">CMD</tspan></text>
      </g>
    </g>
  </g>
</svg>