<?xml version="1.0" encoding="UTF-8"?>
<svg xmlns="http://www.w3.org/2000/svg" version="1.1" viewBox="0 0 74.6 74.1">
  <defs>
    <style>
      .cls-1 {
        fill: none;
      }

      .cls-1, .cls-2 {
        stroke: #1e1f1c;
        stroke-miterlimit: 10;
      }

      .cls-2 {
        fill: #05aec0;
      }
    </style>
  </defs>
  <!-- Generator: Adobe Illustrator 28.6.0, SVG Export Plug-In . SVG Version: 1.2.0 Build 709)  -->
  <g>
    <g id="Laag_1">
      <g>
        <path class="cls-2" d="M69.3,37.5c0,17.2-14.5,31.2-32.3,31.2S4.7,54.8,4.7,37.5s1.8-11.7,4.8-16.4c.6-.9,1.2-1.8,1.9-2.6,1.1-1.4,2.4-2.7,3.7-3.9,5.8-5.1,13.4-8.2,21.9-8.2s17.5,3.7,23.4,9.6c1.2,1.2,2.2,2.4,3.2,3.7s1.6,2.4,2.3,3.6c2.3,4.3,3.5,9.1,3.5,14.2Z"/>
        <path class="cls-2" d="M26,8.2s-16.1,30.8-1.6,58"/>
        <path class="cls-2" d="M47.5,8s16.1,31.3,1.6,58.5"/>
        <line class="cls-2" x1="37" y1="6.3" x2="37" y2="68.7"/>
        <path class="cls-2" d="M80.7,21.9"/>
        <path class="cls-1" d="M6.8,26.4c-1-1.8,39.3-3.6,60.2-.5"/>
        <path class="cls-1" d="M6.9,47.7c-2.7,1,40.3,6.8,60.9-.9"/>
        <line class="cls-1" x1="4.9" y1="38.4" x2="69.3" y2="38.4"/>
        <path class="cls-2" d="M58,13.8"/>
        <path class="cls-2" d="M16.9,13.1"/>
        <path class="cls-2" d="M59.8,66.2"/>
        <path class="cls-2" d="M14.8,66.2"/>
        <path class="cls-1" d="M12.2,57.5s16.1,9,48,1.8"/>
        <path class="cls-1" d="M12.2,17.6c1.7-.7,21.3-9.1,49.4-.3"/>
      </g>
    </g>
  </g>
</svg>