<?xml version="1.0" encoding="UTF-8"?>
<svg xmlns="http://www.w3.org/2000/svg" version="1.1" viewBox="0 0 177 162.4">
  <defs>
    <style>
      .cls-1 {
        fill: #ea5b4c;
      }

      .cls-1, .cls-2, .cls-3 {
        stroke: #1e1e1c;
        stroke-miterlimit: 10;
      }

      .cls-2 {
        fill: #fddaac;
      }

      .cls-3 {
        fill: #dd5440;
      }
    </style>
  </defs>
  <!-- Generator: Adobe Illustrator 28.6.0, SVG Export Plug-In . SVG Version: 1.2.0 Build 709)  -->
  <g>
    <g id="Laag_1">
      <g id="Laag_1-2" data-name="Laag_1">
        <circle class="cls-3" cx="87.5" cy="81.1" r="75.5"/>
        <g>
          <path class="cls-3" d="M86.7,140.4s-2.4,0-4-5.5c-.6-2.2-1.4-4.5-2.3-6.6-1.8-4.2-5-10.4-9.4-15.7-.5-.6-1-1.1-1.6-1.7-3.9-3.8-21.4-22.4-21.1-42,.4-22,17.3-39.8,39.8-39.8s41,21,37.9,43c-2,14.2-11.4,27.2-17.8,34.6-5.4,6.2-9.9,13.1-13.2,20.7-1,2.2-1.7,4.3-2.2,5.9,0,0-2.4,7.5-6.1,7h0Z"/>
          <g>
            <path class="cls-1" d="M122.1,50.2l-51.7,61.6s-16-17.2-17.9-25l47.7-55.7s17.6,6.2,21.2,19.8"/>
            <circle class="cls-2" cx="87" cy="69.7" r="14.1"/>
          </g>
        </g>
      </g>
    </g>
  </g>
</svg>