<?xml version="1.0" encoding="UTF-8"?>
<svg xmlns="http://www.w3.org/2000/svg" version="1.1" viewBox="0 0 1190.55 841.89">
  <defs>
    <style>
      .cls-1 {
        fill: #dd5440;
      }

      .cls-1, .cls-2, .cls-3 {
        stroke: #1e1e1c;
        stroke-miterlimit: 10;
      }

      .cls-2 {
        fill: #ea5b4c;
      }

      .cls-3 {
        fill: #fddaac;
      }
    </style>
  </defs>
  <!-- Generator: Adobe Illustrator 28.6.0, SVG Export Plug-In . SVG Version: 1.2.0 Build 709)  -->
  <g>
    <g id="Laag_1">
      <circle class="cls-1" cx="465.52" cy="279.61" r="75.48"/>
      <g>
        <path class="cls-1" d="M464.67,338.9s-2.39,0-3.98-5.48c-.65-2.24-1.38-4.45-2.31-6.58-1.82-4.18-4.97-10.43-9.43-15.67-.5-.59-1.04-1.14-1.58-1.68-3.85-3.82-21.44-22.36-21.13-41.98.35-22.03,17.26-39.8,39.8-39.8s40.99,21.01,37.92,43.04c-1.99,14.23-11.38,27.19-17.79,34.57-5.39,6.21-9.9,13.15-13.16,20.7-.95,2.19-1.74,4.26-2.19,5.87,0,0-2.39,7.51-6.15,7Z"/>
        <g>
          <path class="cls-2" d="M500.07,248.75l-51.72,61.64s-16.02-17.18-17.9-24.95l47.73-55.67s17.59,6.16,21.23,19.77"/>
          <circle class="cls-3" cx="465.03" cy="268.17" r="14.06"/>
        </g>
      </g>
    </g>
  </g>
</svg>