<?xml version="1.0" encoding="UTF-8"?>
<svg xmlns="http://www.w3.org/2000/svg" version="1.1" viewBox="0 0 1190.55 841.89">
  <defs>
    <style>
      .cls-1 {
        fill: #00995e;
        stroke-width: 2px;
      }

      .cls-1, .cls-2 {
        stroke: #1d1d1b;
        stroke-miterlimit: 10;
      }

      .cls-2 {
        fill: none;
      }
    </style>
  </defs>
  <!-- Generator: Adobe Illustrator 28.6.0, SVG Export Plug-In . SVG Version: 1.2.0 Build 709)  -->
  <g>
    <g id="Laag_1">
      <g>
        <circle class="cls-1" cx="578.54" cy="374.68" r="75.32"/>
        <g>
          <path class="cls-2" d="M563.99,412.08c32.22,9.07,50.45-16.3,50.45-16.3l-10.65-7.27,8.72-1.68c5.67-1.11,11.34-2.22,17.01-3.33.71,8.82,1.42,17.64,2.13,26.46-3.18-2.4-6.36-4.79-9.54-7.19-13.73,19.02-38.84,25.16-60.76,18.4.95-2.84,3.15-9.97,3.15-9.97"/>
          <path class="cls-2" d="M620.95,370.35c-8.68-32.32-39.81-35.02-39.81-35.02l-.8,12.87-5.9-6.63c-3.85-4.31-7.71-8.61-11.56-12.92,7.22-5.12,14.43-10.24,21.65-15.36-.43,3.96-.86,7.91-1.3,11.87,23.36,2.07,41.48,20.51,46.89,42.8-2.93.63-10.18,2.39-10.18,2.39"/>
          <path class="cls-2" d="M555.1,342.21c-23.05,24.27-9.1,52.23-9.1,52.23l11.4-6.03-2.58,8.49c-1.66,5.53-3.33,11.07-4.99,16.6-8.13-3.48-16.27-6.97-24.4-10.45,3.6-1.7,7.2-3.39,10.8-5.09-10.42-21.01-4.15-46.08,12.05-62.33,2.07,2.17,7.35,7.43,7.35,7.43"/>
        </g>
      </g>
    </g>
  </g>
</svg>