<?xml version="1.0" encoding="UTF-8"?>
<svg xmlns="http://www.w3.org/2000/svg" version="1.1" viewBox="0 0 170 171">
  <defs>
    <style>
      .cls-1 {
        fill: #00995e;
        stroke-width: 2px;
      }

      .cls-1, .cls-2 {
        stroke: #1d1d1b;
        stroke-miterlimit: 10;
      }

      .cls-2 {
        fill: none;
      }
    </style>
  </defs>
  <!-- Generator: Adobe Illustrator 28.6.0, SVG Export Plug-In . SVG Version: 1.2.0 Build 709)  -->
  <g>
    <g id="Laag_1">
      <g id="Laag_1-2" data-name="Laag_1">
        <g>
          <circle class="cls-1" cx="85.5" cy="86.8" r="75.3"/>
          <g>
            <path class="cls-2" d="M71,124.2c32.2,9.1,50.5-16.3,50.5-16.3l-10.7-7.3,8.7-1.7c5.7-1.1,11.3-2.2,17-3.3.7,8.8,1.4,17.6,2.1,26.5-3.2-2.4-6.4-4.8-9.5-7.2-13.7,19-38.8,25.2-60.8,18.4,1-2.8,3.2-10,3.2-10"/>
            <path class="cls-2" d="M128,82.5c-8.7-32.3-39.8-35-39.8-35l-.8,12.9-5.9-6.6c-3.8-4.3-7.7-8.6-11.6-12.9,7.2-5.1,14.4-10.2,21.7-15.4-.4,4-.9,7.9-1.3,11.9,23.4,2.1,41.5,20.5,46.9,42.8-2.9.6-10.2,2.4-10.2,2.4"/>
            <path class="cls-2" d="M62.1,54.3c-23,24.3-9.1,52.2-9.1,52.2l11.4-6-2.6,8.5c-1.7,5.5-3.3,11.1-5,16.6-8.1-3.5-16.3-7-24.4-10.5,3.6-1.7,7.2-3.4,10.8-5.1-10.4-21-4.2-46.1,12-62.3,2.1,2.2,7.3,7.4,7.3,7.4"/>
          </g>
        </g>
      </g>
    </g>
  </g>
</svg>