<?xml version="1.0" encoding="UTF-8"?>
<svg xmlns="http://www.w3.org/2000/svg" version="1.1" viewBox="0 0 127.3 132.3">
  <defs>
    <style>
      .cls-1 {
        fill: none;
      }

      .cls-1, .cls-2, .cls-3, .cls-4 {
        stroke-miterlimit: 10;
      }

      .cls-1, .cls-3, .cls-4 {
        stroke: #000;
      }

      .cls-2 {
        fill: #e47228;
        stroke: #1e1e1c;
      }

      .cls-3 {
        fill: #f9af2d;
      }

      .cls-4 {
        fill: #6cc2be;
      }
    </style>
  </defs>
  <!-- Generator: Adobe Illustrator 28.6.0, SVG Export Plug-In . SVG Version: 1.2.0 Build 709)  -->
  <g>
    <g id="Laag_1">
      <g>
        <path class="cls-2" d="M59,99.5s-4.2,1.4-6.6,0-8.3-4.9-11.1-4.7c-3.4.3-1,1.6-.6,1.6,0,0,6.5,2.7,8.8,5.3s9.5,1.1,9.5,1.1v-3.4Z"/>
        <path class="cls-2" d="M72,101.7s4.8,2.1,7.2,1.4,8.2-2.3,10.6-1.5c2.9,1,.7,1.6.2,1.7,0,0-6.2.8-8.7,2.7s-9.9-1.1-9.9-1.1l.7-3.3Z"/>
        <path class="cls-3" d="M105.6,96.9c-1.9-.2-14.7-.4-15.1.3-1.1,2.1-4.8,15,11.6,12.5,6.6-1,5.3-8.9,4.8-11.6-.1-.6-.2-1.1-1.3-1.2"/>
        <path class="cls-3" d="M39.1,87.6c-1.9-.2-14.7-.4-15.1.3-1.1,2.1-4.8,15,11.6,12.5,6.6-1,5.3-8.9,4.8-11.6-.1-.6-.2-1.1-1.3-1.2"/>
        <path class="cls-3" d="M9,71.8c3.6,9.5,14,10,15.9,10s.7,0,1,0c3.2.4,16.5,1.6,22.5-2.2,4-2.5,5.7-5.7,6.4-7.8s0-1.5-.5-1.9-.7-.5-1.2-.5c-8.1-.4-34.5-.8-42.2-.8s-2.7,1.4-2,3.2Z"/>
        <path class="cls-4" d="M22.6,81.3s-4.6-2.6-5.1-5.5c0,0-3-2.7-3.6-.5,0,0,.7,3.3,3.1,4.9l5.6,1.1Z"/>
        <path class="cls-4" d="M46.2,80.6c2.4-1.5,3-4.6,3-4.6-.6-2.1-3.5.5-3.5.5-.5,2.7-5,5.4-5,5.4l5.4-1.3Z"/>
        <path class="cls-4" d="M25.9,82.5v5c0,.1,0,.2-.2.3l-1,.3c-.2,0-.3,0-.3-.3v-4c0-.2.6-1.1,1.6-1.2,2.9-.3,8.7.4,9.1.5.7,0,1,0,1.7,1.2s.2,3.6,0,4.9.3.6.6.6l2.1-.2c.4,0,.7-.3.7-.7.1-1.4.4-4.6.1-5.4s0-.1,0-.2c0-.4-.4-1.5-2-1.4l-13.1-.3c-.8.4-.9,2.2-.9,2.2"/>
        <path class="cls-4" d="M89.1,90.4s-4.6-2.6-5.1-5.5c0,0-3-2.7-3.6-.5,0,0,.7,3.3,3.1,4.9l5.6,1.1Z"/>
        <path class="cls-4" d="M112.7,89.8c2.4-1.5,3-4.6,3-4.6-.6-2.1-3.5.5-3.5.5-.5,2.7-5,5.4-5,5.4l5.4-1.3Z"/>
        <path class="cls-4" d="M92.4,91.7v5c0,.1,0,.2-.2.3l-1,.3c-.2,0-.3,0-.3-.3v-4c0-.2.6-1.1,1.6-1.2,2.9-.3,8.7.4,9.1.5.7,0,1,0,1.7,1.2s.2,3.6,0,4.9.3.6.6.6l2.1-.2c.4,0,.7-.3.7-.7.1-1.4.4-4.6.1-5.4s0-.1,0-.2c0-.4-.4-1.5-2-1.4l-13.1-.3c-.8.4-.9,2.2-.9,2.2"/>
        <path class="cls-2" d="M68.3,118.6c-.8-1.2.6-1.9-.6-4-.5-.5-1.3-1.2-1.3-2.1,0-.5.4-1.2,1.1-1.7,5.8-4.2,5.1-11.1,3.7-13.2-1.2-1.6-2-2.9-5-3.4-1.5-.2-2.7,0-3.7.5-2.9,1.5-3.8,5.8-3.8,6.4,0,4,.7,6.8,3.5,9.2.6.5,2.5,1,2.5,2.3,0,.5-.6,1.6-1,2.1-1.1,1.4-.2,3.3-.8,3.6-1.3.8-2.1,1.3-3.4,2.3-.7.5-.3,1.6.5,1.6h10.6c.6,0,.9-.8.4-1.3l-2.6-2.2Z"/>
        <path class="cls-2" d="M66,84.7c-1.8,7.8,5.1,12.9,5.1,12.9l-5.1-12.9"/>
        <path class="cls-2" d="M66,84.7c1.8,7.8-6.2,12.7-6.2,12.7l6.2-12.7"/>
        <line class="cls-1" x1="120.2" y1="78.8" x2="76.6" y2="77.8"/>
        <g>
          <path class="cls-3" d="M75.5,80.9c3.6,9.5,14,10,15.9,10s.7,0,1,0c3.2.4,16.5,1.6,22.5-2.2,4-2.5,5.7-5.7,6.4-7.8s-.5-2.4-1.7-2.5c-8.1-.4-34.5-.8-42.2-.8s-2.7,1.4-2,3.2Z"/>
          <polygon class="cls-1" points="10.4 68.6 32.4 30.3 54 69.5 10.4 68.6"/>
          <line class="cls-1" x1="98.6" y1="39.6" x2="120.2" y2="78.8"/>
          <polyline class="cls-1" points="32.4 30.3 67.3 22.8 98.6 39.6 76.6 77.8"/>
          <ellipse class="cls-1" cx="67.3" cy="17.5" rx="4.6" ry="5.3"/>
        </g>
        <path class="cls-4" d="M91.1,90.9s-4.6-2.6-5.1-5.5c0,0-3-2.7-3.6-.5,0,0,.7,3.3,3.1,4.9l5.6,1.1Z"/>
        <path class="cls-4" d="M113.6,89.5c2.4-1.5,3-4.6,3-4.6-.6-2.1-3.5.5-3.5.5-.5,2.7-5,5.4-5,5.4l5.4-1.3Z"/>
      </g>
    </g>
  </g>
</svg>