<?xml version="1.0" encoding="UTF-8"?>
<svg xmlns="http://www.w3.org/2000/svg" version="1.1" viewBox="0 0 569.7 569.7">
  <defs>
    <style>
      .cls-1 {
        fill: #fedcad;
      }
    </style>
  </defs>
  <!-- Generator: Adobe Illustrator 28.6.0, SVG Export Plug-In . SVG Version: 1.2.0 Build 709)  -->
  <g>
    <g id="Laag_1">
      <g>
        <circle cx="288.5" cy="289.3" r="257.5"/>
        <path class="cls-1" d="M143.3,290.2l94.8-95c7.3-7.4,19.2-8,27.1-1.3s4.5,4.1,6.9,6.7c17.2,18.9,4.9,20.7-10.9,37.1l-29.6,30c-1.8,1.8-2.7,4.4-2.2,6.9s1.8,4.3,5.6,4.8c7.6,1,175.7-.2,194.2-.3s2.9.4,4.1,1.1c2.5,1.5,6,4.7,6.7,11.2.9,9,.2,22.4,0,25.3s-.1,1-.2,1.6c-.6,2.2-2.8,7.4-10.3,7.4h-189.3c-.5,0-1,0-1.4.1-3.2.6-14.3,3.5-3.4,13.2s37.4,37.6,43.8,44.4,2,2.9,2.1,4.6c.3,3.5-.5,9.7-7.7,16.5l-11,10.3c-.2.1-.3.3-.4.5-1.3,1.5-9.9,9.9-24-6.5-14.3-16.6-88.7-89-99-99s-.2-.3-.4-.5c-2.9-4.5-2.7-10.4.4-14.7s2.7-3.4,4.2-4.3Z"/>
      </g>
    </g>
  </g>
</svg>