<?xml version="1.0" encoding="UTF-8"?>
<svg xmlns="http://www.w3.org/2000/svg" version="1.1" viewBox="0 0 177.6 166.7">
  <defs>
    <style>
      .cls-1 {
        fill: #e47228;
      }

      .cls-1, .cls-2, .cls-3, .cls-4, .cls-5 {
        stroke: #010101;
        stroke-miterlimit: 10;
        stroke-width: .5px;
      }

      .cls-2 {
        fill: none;
      }

      .cls-3 {
        fill: #f9ae2b;
      }

      .cls-4 {
        fill: #dd5440;
      }

      .cls-5 {
        fill: #b5c1cb;
      }
    </style>
  </defs>
  <!-- Generator: Adobe Illustrator 28.6.0, SVG Export Plug-In . SVG Version: 1.2.0 Build 709)  -->
  <g>
    <g id="Laag_1">
      <g>
        <path class="cls-1" d="M90.5,107.4l72.7-1c1.7-3.7,11.1-29.1-47.5-42-.2,0-.3,0-.5-.2l-11.7-5.4c-.1,0-.2-.1-.3-.2-2.4-1.6-31.1-21.2-27.3-43,.3-1.5-.9-2.9-2.4-2.9H21c-.8,0-1.5.3-1.9.9-1.8,2.5-4.7,11.5.9,43.3.1.6,0,1.3-.4,1.8-1.7,2.6-6.8,12.5-4.5,38.2,0,.2,0,.3,0,.5l4.2,13.9c.3,1,1.3,1.7,2.3,1.7h37.4c1,0,1.9-.6,2.3-1.6l3.7-9.9c.4-1.2,1.8-1.9,3-1.5l21.2,6.4c1,.3,1.7,1.3,1.7,2.3h0c0,1.4,1.1,2.5,2.5,2.4l66.7-1.2c1.5,0,3.5-4.2,3.5-5.7"/>
        <path class="cls-5" d="M17.1,63.5s32.1,20.8,33.9,35c.1.9-1.6.5-2.5.5h-5.1c-.2,0-.5-1.4-.6-1.6-3.2-10.4-26.9-25.4-26.9-25.4"/>
        <line class="cls-2" x1="15.1" y1="97.4" x2="66.8" y2="100.1"/>
        <path class="cls-2" d="M85.2,40.7s-1-17.8,5.9-15.9c6.8,1.9-5.9,15.9-5.9,15.9Z"/>
        <path class="cls-2" d="M86.1,40.7s5.7-10.8,10.8-13.8c2.2-1.3,3.4-.4,3.9,1.1.9,2.4-.2,5.1-2.4,6.4l-12.3,7.5s13.7,2.3,13.8,5.3,9.9,3.8,9.9,3.8"/>
        <path class="cls-2" d="M86.1,41.8s14.2,11,18.2,12.7"/>
        <path class="cls-3" d="M83.4,40.7s-17.8,6.8-13.1,10.2c4.7,3.4,17.9-6.4,17.9-6.4"/>
        <path class="cls-5" d="M90.7,48.1s-17.8,6.8-13.1,10.2c4.7,3.4,17.9-6.4,17.9-6.4"/>
        <path class="cls-4" d="M78.4,31.9s-18.3,5.5-13.9,9.3c4.4,3.7,16.3-3.9,16.3-3.9"/>
        <path class="cls-3" d="M14.7,79.2s17,8.8,20.1,19.2l8.5.3c-3.7-14.4-27.7-27.3-27.7-27.3l-.9,7.8Z"/>
        <circle class="cls-5" cx="41.8" cy="133.2" r="19.9"/>
        <path class="cls-4" d="M40.8,113.1h-6.7c-18.1-.6-21.5,24.5-6.9,34.2-.4,1.6-16.9-27.4,13.6-34.2Z"/>
        <circle class="cls-3" cx="41.8" cy="133.2" r="11.5"/>
        <circle class="cls-5" cx="138.5" cy="130.5" r="19.9"/>
        <path class="cls-4" d="M137.5,110.4h-6.7c-17.9-.6-19.4,25.5-6.9,34.2-.4,1.6-16.9-27.4,13.6-34.2Z"/>
        <circle class="cls-3" cx="138.5" cy="130.5" r="11.5"/>
        <path class="cls-2" d="M66.8,100.1"/>
      </g>
    </g>
  </g>
</svg>