<?xml version="1.0" encoding="UTF-8"?>
<svg xmlns="http://www.w3.org/2000/svg" version="1.1" viewBox="0 0 55.2 50.8">
  <defs>
    <style>
      .cls-1 {
        fill: none;
      }

      .cls-1, .cls-2, .cls-3, .cls-4, .cls-5 {
        stroke: #010101;
        stroke-miterlimit: 10;
        stroke-width: .2px;
      }

      .cls-2 {
        fill: #f9ae2b;
      }

      .cls-3 {
        fill: #dd5440;
      }

      .cls-4 {
        fill: #e47228;
      }

      .cls-5 {
        fill: #b5c1cb;
      }
    </style>
  </defs>
  <!-- Generator: Adobe Illustrator 28.6.0, SVG Export Plug-In . SVG Version: 1.2.0 Build 709)  -->
  <g>
    <g id="Laag_1">
      <g>
        <path class="cls-4" d="M27,33l-21.4-.3c-.5-1.1-3.3-8.6,14-12.3,0,0,0,0,.1,0l3.5-1.6s0,0,0,0c.7-.5,9.2-6.2,8-12.7,0-.4.3-.9.7-.9h15.4c.2,0,.4,0,.6.3.5.7,1.4,3.4-.3,12.7,0,.2,0,.4.1.5.5.8,2,3.7,1.3,11.2s0,0,0,.1l-1.2,4.1c0,.3-.4.5-.7.5h-11c-.3,0-.6-.2-.7-.5l-1.1-2.9c-.1-.4-.5-.5-.9-.4l-6.3,1.9c-.3,0-.5.4-.5.7h0c0,.4-.3.7-.7.7l-19.6-.3c-.4,0-1-1.2-1-1.7"/>
        <path class="cls-5" d="M48.6,20.1s-9.5,6.1-10,10.3.5.2.7.2h1.5c0,0,.2-.4.2-.5.9-3.1,7.9-7.5,7.9-7.5"/>
        <line class="cls-1" x1="49.2" y1="30.1" x2="34" y2="30.8"/>
        <path class="cls-1" d="M28.6,13.3s.3-5.2-1.7-4.7,1.7,4.7,1.7,4.7Z"/>
        <path class="cls-1" d="M28.3,13.3s-1.7-3.2-3.2-4.1-1-.1-1.1.3c-.3.7,0,1.5.7,1.9l3.6,2.2s-4,.7-4.1,1.6-2.9,1.1-2.9,1.1"/>
        <path class="cls-1" d="M28.3,13.7s-4.2,3.2-5.4,3.7"/>
        <path class="cls-2" d="M29.1,13.3s5.2,2,3.9,3-5.3-1.9-5.3-1.9"/>
        <path class="cls-5" d="M26.9,15.5s5.2,2,3.9,3-5.3-1.9-5.3-1.9"/>
        <path class="cls-3" d="M30.6,10.8s5.4,1.6,4.1,2.7-4.8-1.2-4.8-1.2"/>
        <path class="cls-2" d="M49.3,24.7s-5,2.6-5.9,5.7h-2.5c1.1-4.1,8.2-8,8.2-8l.3,2.3Z"/>
        <circle class="cls-5" cx="41.3" cy="40.6" r="5.9"/>
        <path class="cls-3" d="M41.6,34.7h2c5.3-.2,6.3,7.2,2,10.1.1.5,5-8.1-4-10.1Z"/>
        <circle class="cls-2" cx="41.3" cy="40.6" r="3.4"/>
        <circle class="cls-5" cx="12.9" cy="39.8" r="5.9"/>
        <path class="cls-3" d="M13.2,33.9h2c5.3-.2,5.7,7.5,2,10.1.1.5,5-8.1-4-10.1Z"/>
        <circle class="cls-2" cx="12.9" cy="39.8" r="3.4"/>
        <path class="cls-1" d="M34,30.8"/>
      </g>
    </g>
  </g>
</svg>