<?xml version="1.0" encoding="UTF-8"?>
<svg xmlns="http://www.w3.org/2000/svg" version="1.1" viewBox="0 0 60.4 78.8">
  <defs>
    <style>
      .cls-1 {
        fill: #e47228;
      }

      .cls-1, .cls-2, .cls-3, .cls-4 {
        stroke: #010101;
        stroke-miterlimit: 10;
        stroke-width: .5px;
      }

      .cls-2 {
        fill: none;
      }

      .cls-3 {
        fill: #dd5440;
      }

      .cls-4 {
        fill: #b5c1cb;
      }
    </style>
  </defs>
  <!-- Generator: Adobe Illustrator 28.6.0, SVG Export Plug-In . SVG Version: 1.2.0 Build 709)  -->
  <g>
    <g id="Laag_1">
      <g>
        <path class="cls-1" d="M43.4,26.6v50.5l13.1-3.6-1.3-50.6c0,0,0,0-.1,0l-5.6,2-6,1.7Z"/>
        <path class="cls-2" d="M50,70.3l-5.7,6.5s0,0,0,0l11.7-3.2c.2,0,.2-.3,0-.4l-6-3Z"/>
        <line class="cls-2" x1="49.4" y1="24.9" x2="50" y2="70.3"/>
        <path class="cls-3" d="M43.4,26.6L6.6,16l-1.9,50.1,38.6,11,.2-50.4L6.6,16.1s0,0,0,0l14.8-3.2,34,10.2"/>
        <path class="cls-2" d="M18.7,24.3c9.7-48.1,13.4,3.5,13.3,3"/>
        <ellipse class="cls-4" cx="32" cy="29.5" rx="1.4" ry="2.1"/>
        <ellipse class="cls-4" cx="18.7" cy="26.3" rx="1.4" ry="2.1"/>
        <path class="cls-2" d="M42,18.5s-3.9-31.4-13.5-4"/>
      </g>
    </g>
  </g>
</svg>