<?xml version="1.0" encoding="UTF-8"?>
<svg xmlns="http://www.w3.org/2000/svg" version="1.1" viewBox="0 0 1190.55 841.89">
  <defs>
    <style>
      .cls-1 {
        fill: none;
        stroke-width: .5px;
      }

      .cls-1, .cls-2 {
        stroke: #010101;
        stroke-miterlimit: 10;
      }

      .cls-2 {
        fill: #e47228;
      }
    </style>
  </defs>
  <!-- Generator: Adobe Illustrator 28.6.0, SVG Export Plug-In . SVG Version: 1.2.0 Build 709)  -->
  <g>
    <g id="Laag_1">
      <g>
        <circle class="cls-2" cx="530.93" cy="315.83" r="75.07"/>
        <g>
          <path class="cls-1" d="M528.78,301.6l-47.14,16.69c-13.61,6.05-12.96,17.07-12.96,17.07h123.35s.65-11.02-12.96-17.07l-46.55-16.36.16-5.18s10.37-3.56,8.59-13.45c-1.78-9.88-13.6-8.64-15.88-7.13,0,0-6.35,1.88-5.9,10.53,0,0,3.47.65,4.11,0s-2.7-5.27,6.75-8.23c0,0,5.88-.4,7.02,5.78,1.13,6.18-4.21,9.74-8.59,9.26v8.1Z"/>
          <path class="cls-1" d="M530.89,304.89l-43.82,15.94c-13.61,6.05-12.86,10.92-12.86,10.92h112.24s.75-4.87-12.86-10.92l-43.25-16.02"/>
        </g>
      </g>
    </g>
  </g>
</svg>