<?xml version="1.0" encoding="UTF-8"?>
<svg xmlns="http://www.w3.org/2000/svg" version="1.1" viewBox="0 0 171 167">
  <defs>
    <style>
      .cls-1 {
        fill: #e47228;
      }

      .cls-1, .cls-2 {
        stroke: #010101;
        stroke-miterlimit: 10;
      }

      .cls-2 {
        fill: none;
        stroke-width: .5px;
      }
    </style>
  </defs>
  <!-- Generator: Adobe Illustrator 28.6.0, SVG Export Plug-In . SVG Version: 1.2.0 Build 709)  -->
  <g>
    <g id="Laag_1">
      <g id="Laag_1-2" data-name="Laag_1">
        <g>
          <circle class="cls-1" cx="85.9" cy="85.9" r="75.1"/>
          <g>
            <path class="cls-2" d="M83.8,71.7l-47.1,16.7c-13.6,6-13,17.1-13,17.1h123.4s.7-11-13-17.1l-46.5-16.4.2-5.2s10.4-3.6,8.6-13.5c-1.8-9.9-13.6-8.6-15.9-7.1,0,0-6.3,1.9-5.9,10.5,0,0,3.5.6,4.1,0s-2.7-5.3,6.8-8.2c0,0,5.9-.4,7,5.8,1.1,6.2-4.2,9.7-8.6,9.3v8.1h0Z"/>
            <path class="cls-2" d="M85.9,75l-43.8,15.9c-13.6,6-12.9,10.9-12.9,10.9h112.2s.8-4.9-12.9-10.9l-43.2-16"/>
          </g>
        </g>
      </g>
    </g>
  </g>
</svg>