<?xml version="1.0" encoding="UTF-8"?>
<svg xmlns="http://www.w3.org/2000/svg" version="1.1" viewBox="0 0 81.5 32.8">
  <defs>
    <style>
      .cls-1 {
        fill: #dd5440;
      }

      .cls-1, .cls-2, .cls-3 {
        stroke: #1e1e1c;
        stroke-miterlimit: 10;
      }

      .cls-2 {
        fill: #fedcad;
      }

      .cls-3 {
        fill: #b5c1cb;
        stroke-width: .8px;
      }
    </style>
  </defs>
  <!-- Generator: Adobe Illustrator 28.6.0, SVG Export Plug-In . SVG Version: 1.2.0 Build 709)  -->
  <g>
    <g id="Laag_1">
      <path class="cls-2" d="M5.8,1.4s-4.7-.2-3.9,6.6c.7,6.9,0,19.6,0,19.6,0,0-.2,3.4,5.5,3.7h67.1c5.6-.2,5.5-3.7,5.5-3.7,0,0-.8-12.8,0-19.6.7-6.9-3.9-6.6-3.9-6.6H5.8Z"/>
      <path class="cls-1" d="M9.1,14.8l1.6-4.3c0,0,.2,0,.2,0l1.6,4.3,4.4.2c0,0,.1.1,0,.2l-3.5,2.6,1.3,4.2c0,0,0,.2-.2.1l-3.7-2.4-3.7,2.6c0,0-.2,0-.2-.1l1.2-4.4-3.5-2.7c0,0,0-.2,0-.2l4.3-.2Z"/>
      <path class="cls-1" d="M24.2,14.8l1.6-4.3c0,0,.2,0,.2,0l1.6,4.3,4.4.2c0,0,.1.1,0,.2l-3.5,2.6,1.3,4.2c0,0,0,.2-.2.1l-3.7-2.4-3.7,2.6c0,0-.2,0-.2-.1l1.2-4.4-3.5-2.7c0,0,0-.2,0-.2l4.3-.2Z"/>
      <path class="cls-1" d="M39.1,14.8l1.6-4.3c0,0,.2,0,.2,0l1.6,4.3,4.4.2c0,0,.1.1,0,.2l-3.5,2.6,1.3,4.2c0,0,0,.2-.2.1l-3.7-2.4-3.7,2.6c0,0-.2,0-.2-.1l1.2-4.4-3.5-2.7c0,0,0-.2,0-.2l4.3-.2Z"/>
      <path class="cls-1" d="M53.9,14.8l1.6-4.3c0,0,.2,0,.2,0l1.6,4.3,4.4.2c0,0,.1.1,0,.2l-3.5,2.6,1.3,4.2c0,0,0,.2-.2.1l-3.7-2.4-3.7,2.6c0,0-.2,0-.2-.1l1.2-4.4-3.5-2.7c0,0,0-.2,0-.2l4.3-.2Z"/>
      <path class="cls-1" d="M68.7,14.8l1.6-4.3c0,0,.2,0,.2,0l1.6,4.3,4.4.2c0,0,.1.1,0,.2l-3.5,2.6,1.3,4.2c0,0,0,.2-.2.1l-3.7-2.4-3.7,2.6c0,0-.2,0-.2-.1l1.2-4.4-3.5-2.7c0,0,0-.2,0-.2l4.3-.2Z"/>
      <path class="cls-3" d="M70.4,12.5v7.1c0,.1,0,.3.2.4l2.7,1.7c.3.2.7,0,.6-.5l-.8-3.1c0-.2,0-.3.2-.4l2.2-1.6c.3-.2.2-.7-.2-.8l-2.6-.2c-.1,0-.3-.1-.3-.2l-1.2-2.4c-.2-.4-.8-.3-.8.2Z"/>
    </g>
  </g>
</svg>