<?xml version="1.0" encoding="UTF-8"?>
<svg xmlns="http://www.w3.org/2000/svg" version="1.1" viewBox="0 0 296 81">
  <defs>
    <style>
      .cls-1 {
        stroke: #dd5440;
        stroke-width: .2px;
      }

      .cls-1, .cls-2 {
        stroke-miterlimit: 10;
      }

      .cls-1, .cls-3 {
        fill: #010101;
      }

      .cls-4, .cls-3 {
        isolation: isolate;
      }

      .cls-2 {
        fill: #04985e;
        stroke: #010101;
      }

      .cls-3 {
        font-family: ArialMT, Arial;
        font-size: 17.2px;
      }
    </style>
  </defs>
  <!-- Generator: Adobe Illustrator 28.6.0, SVG Export Plug-In . SVG Version: 1.2.0 Build 709)  -->
  <g>
    <g id="Laag_1">
      <g id="Laag_1-2" data-name="Laag_1">
        <rect class="cls-2" x="8.2" y="8.4" width="277.3" height="63.5" rx="5.9" ry="5.9"/>
        <g>
          <g class="cls-4">
            <text class="cls-3" transform="translate(35.3 27.1)"><tspan x="0" y="0">g</tspan></text>
          </g>
          <g>
            <path class="cls-1" d="M95,19.8h10c.6,0,1.2,0,1.7.5.4.4.9,1.1.3,1.9-.2.3-.5.5-.7.5-.3.1-.6.1-1,.1h-10.3c-.6,0-1.1-.4-1.5-.9-.3-.4-.4-.9,0-1.5.3-.5.9-.7,1.4-.7h0Z"/>
            <path class="cls-1" d="M105.8,36.1v-10c0-.6,0-1.2.5-1.7.4-.4,1.1-.9,2-.3.3.2.5.5.5.7,0,.3.1.6.1,1v10.3c0,.6-.4,1.1-.9,1.5-.4.3-.9.4-1.5,0-.5-.3-.7-.9-.7-1.4h0Z"/>
            <path class="cls-1" d="M91.8,36.1v-10c0-.6,0-1.2.5-1.7.4-.4,1.1-.9,2-.3.3.2.5.5.5.7.1.3.1.6.1,1v10.3c0,.6-.4,1.1-.9,1.5-.4.3-.9.4-1.5,0-.5-.3-.7-.9-.7-1.4h0Z"/>
            <path class="cls-1" d="M105.6,60.5h-10c-.6,0-1.2,0-1.7-.5-.4-.4-.9-1.1-.3-1.9.2-.3.5-.5.7-.5.3-.1.6-.1,1-.1h10.3c.6,0,1.2.4,1.5.9.3.4.4.9,0,1.5-.3.5-.9.7-1.4.7h0Z"/>
            <path class="cls-1" d="M94.9,44.2v10c0,.6,0,1.2-.5,1.7-.4.4-1.1.9-2,.3-.3-.2-.5-.5-.5-.7-.1-.3-.1-.6-.1-1v-10.3c0-.6.4-1.1.9-1.5.4-.3.9-.4,1.5,0,.5.3.7.9.7,1.4h0Z"/>
            <path class="cls-1" d="M108.9,44.2v10c0,.6,0,1.2-.5,1.7-.4.4-1.1.9-2,.3-.3-.2-.5-.5-.5-.7,0-.3-.1-.6-.1-1v-10.3c0-.6.4-1.1.9-1.5.4-.3.9-.4,1.5,0,.5.3.7.9.7,1.4h0Z"/>
            <g>
              <path class="cls-1" d="M127.4,19.8h10c.6,0,1.2,0,1.7.5.4.4.9,1.1.3,1.9-.2.3-.5.5-.7.5-.3.1-.6.1-1,.1h-10.3c-.6,0-1.2-.4-1.5-.9-.3-.4-.4-.9,0-1.5.3-.5.9-.7,1.4-.7h0Z"/>
              <path class="cls-1" d="M138.2,36.1v-10c0-.6,0-1.2.5-1.7.4-.4,1.1-.9,2-.3.3.2.5.5.5.7,0,.3.1.6.1,1v10.3c0,.6-.4,1.1-.9,1.5-.4.3-.9.4-1.5,0-.5-.3-.7-.9-.7-1.4h0Z"/>
              <path class="cls-1" d="M124.2,36.1v-10c0-.6,0-1.2.5-1.7.4-.4,1.1-.9,2-.3.3.2.5.5.5.7,0,.3.1.6.1,1v10.3c0,.6-.4,1.1-.9,1.5-.4.3-.9.4-1.5,0-.5-.3-.7-.9-.7-1.4h0Z"/>
              <path class="cls-1" d="M138,60.5h-10c-.6,0-1.2,0-1.7-.5-.4-.4-.9-1.1-.3-1.9.2-.3.5-.5.7-.5.3-.1.6-.1,1-.1h10.3c.6,0,1.2.4,1.5.9.3.4.4.9,0,1.5-.3.5-.9.7-1.4.7h0Z"/>
              <path class="cls-1" d="M127.3,44.2v10c0,.6,0,1.2-.5,1.7-.4.4-1.1.9-2,.3-.3-.2-.5-.5-.5-.7,0-.3-.1-.6-.1-1v-10.3c0-.6.4-1.1.9-1.5.4-.3.9-.4,1.5,0,.5.3.7.9.7,1.4h0Z"/>
              <path class="cls-1" d="M141.3,44.2v10c0,.6,0,1.2-.5,1.7-.4.4-1.1.9-2,.3-.3-.2-.5-.5-.5-.7,0-.3-.1-.6-.1-1v-10.3c0-.6.4-1.1.9-1.5.4-.3.9-.4,1.5,0,.5.3.7.9.7,1.4h0Z"/>
            </g>
            <g>
              <path class="cls-1" d="M154.4,19.8h10c.6,0,1.2,0,1.7.5.4.4.9,1.1.3,1.9-.2.3-.5.5-.7.5-.3.1-.6.1-1,.1h-10.3c-.6,0-1.2-.4-1.5-.9-.3-.4-.4-.9,0-1.5.3-.5.9-.7,1.4-.7h0Z"/>
              <path class="cls-1" d="M165.2,36.1v-10c0-.6,0-1.2.5-1.7.4-.4,1.1-.9,2-.3.3.2.5.5.5.7,0,.3.1.6.1,1v10.3c0,.6-.4,1.1-.9,1.5-.4.3-.9.4-1.5,0-.5-.3-.7-.9-.7-1.4h0Z"/>
              <path class="cls-1" d="M151.2,36.1v-10c0-.6,0-1.2.5-1.7.4-.4,1.1-.9,2-.3.3.2.5.5.5.7,0,.3.1.6.1,1v10.3c0,.6-.4,1.1-.9,1.5-.4.3-.9.4-1.5,0-.5-.3-.7-.9-.7-1.4h0Z"/>
              <path class="cls-1" d="M165,60.5h-10c-.6,0-1.2,0-1.7-.5-.4-.4-.9-1.1-.3-1.9.2-.3.5-.5.7-.5.3-.1.6-.1,1-.1h10.3c.6,0,1.2.4,1.5.9.3.4.4.9,0,1.5-.3.5-.9.7-1.4.7h0Z"/>
              <path class="cls-1" d="M154.3,44.2v10c0,.6,0,1.2-.5,1.7-.4.4-1.1.9-2,.3-.3-.2-.5-.5-.5-.7,0-.3-.1-.6-.1-1v-10.3c0-.6.4-1.1.9-1.5.4-.3.9-.4,1.5,0,.5.3.7.9.7,1.4h0Z"/>
              <path class="cls-1" d="M168.3,44.2v10c0,.6,0,1.2-.5,1.7-.4.4-1.1.9-2,.3-.3-.2-.5-.5-.5-.7,0-.3-.1-.6-.1-1v-10.3c0-.6.4-1.1.9-1.5.4-.3.9-.4,1.5,0,.5.3.7.9.7,1.4h0Z"/>
            </g>
            <path class="cls-1" d="M117.1,60.5h-3c-.2,0-.3,0-.5-.5-.1-.4-.3-1.1,0-1.9,0-.3.1-.5.2-.5,0-.1.2-.1.3-.1h3.1c.2,0,.3.4.5.9,0,.4.1.9,0,1.5,0,.5-.3.7-.4.7h0Z"/>
            <g>
              <path class="cls-1" d="M181.9,19.8h10c.6,0,1.2,0,1.7.5.4.4.9,1.1.3,1.9-.2.3-.5.5-.7.5-.3.1-.6.1-1,.1h-10.3c-.6,0-1.2-.4-1.5-.9-.3-.4-.4-.9,0-1.5.3-.5.9-.7,1.4-.7h0Z"/>
              <path class="cls-1" d="M192.6,36.1v-10c0-.6,0-1.2.5-1.7.4-.4,1.1-.9,2-.3.3.2.5.5.5.7,0,.3.1.6.1,1v10.3c0,.6-.4,1.1-.9,1.5-.4.3-.9.4-1.5,0-.5-.3-.7-.9-.7-1.4h0Z"/>
              <path class="cls-1" d="M178.6,36.1v-10c0-.6,0-1.2.5-1.7.4-.4,1.1-.9,2-.3.3.2.5.5.5.7,0,.3.1.6.1,1v10.3c0,.6-.4,1.1-.9,1.5-.4.3-.9.4-1.5,0-.5-.3-.7-.9-.7-1.4h0Z"/>
              <path class="cls-1" d="M192.5,60.5h-10c-.6,0-1.2,0-1.7-.5-.4-.4-.9-1.1-.3-1.9.2-.3.5-.5.7-.5.3-.1.6-.1,1-.1h10.3c.6,0,1.2.4,1.5.9.3.4.4.9,0,1.5-.3.5-.9.7-1.4.7h0Z"/>
              <path class="cls-1" d="M181.7,44.2v10c0,.6,0,1.2-.5,1.7-.4.4-1.1.9-2,.3-.3-.2-.5-.5-.5-.7,0-.3-.1-.6-.1-1v-10.3c0-.6.4-1.1.9-1.5.4-.3.9-.4,1.5,0,.5.3.7.9.7,1.4h0Z"/>
              <path class="cls-1" d="M195.8,44.2v10c0,.6,0,1.2-.5,1.7-.4.4-1.1.9-2,.3-.3-.2-.5-.5-.5-.7,0-.3-.1-.6-.1-1v-10.3c0-.6.4-1.1.9-1.5.4-.3.9-.4,1.5,0,.5.3.7.9.7,1.4h0Z"/>
            </g>
          </g>
        </g>
      </g>
    </g>
  </g>
</svg>