<?xml version="1.0" encoding="UTF-8"?>
<svg xmlns="http://www.w3.org/2000/svg" version="1.1" viewBox="0 0 1190.55 841.89">
  <defs>
    <style>
      .cls-1 {
        font-family: MyriadPro-Regular, 'Myriad Pro';
        font-size: 17.25px;
      }

      .cls-1, .cls-2 {
        fill: #010101;
      }

      .cls-3 {
        fill: #04985e;
        stroke: #010101;
      }

      .cls-3, .cls-2 {
        stroke-miterlimit: 10;
      }

      .cls-2 {
        stroke: #dd5440;
        stroke-width: .25px;
      }
    </style>
  </defs>
  <!-- Generator: Adobe Illustrator 28.6.0, SVG Export Plug-In . SVG Version: 1.2.0 Build 709)  -->
  <g>
    <g id="Laag_1">
      <rect class="cls-3" x="422.23" y="135.3" width="277.32" height="63.5" rx="5.87" ry="5.87"/>
      <g>
        <text class="cls-1" transform="translate(449.34 153.97)"><tspan x="0" y="0">g</tspan></text>
        <g>
          <path class="cls-2" d="M509.03,146.7h10.02c.64,0,1.16-.02,1.72.51.42.4.88,1.06.31,1.95-.2.32-.47.46-.74.54-.31.1-.64.14-.97.14l-10.32-.07c-.59-.01-1.15-.3-1.49-.83-.26-.41-.38-.94.03-1.51.34-.47.88-.73,1.43-.73Z"/>
          <path class="cls-2" d="M519.78,162.97v-10.02c0-.64-.02-1.16.51-1.72.4-.42,1.06-.88,1.95-.31.32.2.46.47.54.74.1.31.14.64.14.97l-.07,10.32c-.01.59-.3,1.15-.83,1.49-.41.26-.94.38-1.51-.03-.47-.34-.73-.88-.73-1.43Z"/>
          <path class="cls-2" d="M505.76,162.97v-10.02c0-.64-.02-1.16.51-1.72.4-.42,1.06-.88,1.95-.31.32.2.46.47.54.74.1.31.14.64.14.97l-.07,10.32c-.01.59-.3,1.15-.83,1.49-.41.26-.94.38-1.51-.03-.47-.34-.73-.88-.73-1.43Z"/>
          <path class="cls-2" d="M519.64,187.4h-10.02c-.64,0-1.16.02-1.72-.51-.42-.4-.88-1.06-.31-1.95.2-.32.47-.46.74-.54.31-.1.64-.14.97-.14l10.32.07c.59.01,1.15.3,1.49.83.26.41.38.94-.03,1.51-.34.47-.88.73-1.43.73Z"/>
          <path class="cls-2" d="M508.9,171.13v10.02c0,.64.02,1.16-.51,1.72-.4.42-1.06.88-1.95.31-.32-.2-.46-.47-.54-.74-.1-.31-.14-.64-.14-.97l.07-10.32c.01-.59.3-1.15.83-1.49.41-.26.94-.38,1.51.03.47.34.73.88.73,1.43Z"/>
          <path class="cls-2" d="M522.91,171.13v10.02c0,.64.02,1.16-.51,1.72-.4.42-1.06.88-1.95.31-.32-.2-.46-.47-.54-.74-.1-.31-.14-.64-.14-.97l.07-10.32c.01-.59.3-1.15.83-1.49.41-.26.94-.38,1.51.03.47.34.73.88.73,1.43Z"/>
          <g>
            <path class="cls-2" d="M541.42,146.7h10.02c.64,0,1.16-.02,1.72.51.42.4.88,1.06.31,1.95-.2.32-.47.46-.74.54-.31.1-.64.14-.97.14l-10.32-.07c-.59-.01-1.15-.3-1.49-.83-.26-.41-.38-.94.03-1.51.34-.47.88-.73,1.43-.73Z"/>
            <path class="cls-2" d="M552.17,162.97v-10.02c0-.64-.02-1.16.51-1.72.4-.42,1.06-.88,1.95-.31.32.2.46.47.54.74.1.31.14.64.14.97l-.07,10.32c-.01.59-.3,1.15-.83,1.49-.41.26-.94.38-1.51-.03-.47-.34-.73-.88-.73-1.43Z"/>
            <path class="cls-2" d="M538.16,162.97v-10.02c0-.64-.02-1.16.51-1.72.4-.42,1.06-.88,1.95-.31.32.2.46.47.54.74.1.31.14.64.14.97l-.07,10.32c-.01.59-.3,1.15-.83,1.49-.41.26-.94.38-1.51-.03-.47-.34-.73-.88-.73-1.43Z"/>
            <path class="cls-2" d="M552.04,187.4h-10.02c-.64,0-1.16.02-1.72-.51-.42-.4-.88-1.06-.31-1.95.2-.32.47-.46.74-.54.31-.1.64-.14.97-.14l10.32.07c.59.01,1.15.3,1.49.83.26.41.38.94-.03,1.51-.34.47-.88.73-1.43.73Z"/>
            <path class="cls-2" d="M541.29,171.13v10.02c0,.64.02,1.16-.51,1.72-.4.42-1.06.88-1.95.31-.32-.2-.46-.47-.54-.74-.1-.31-.14-.64-.14-.97l.07-10.32c.01-.59.3-1.15.83-1.49.41-.26.94-.38,1.51.03.47.34.73.88.73,1.43Z"/>
            <path class="cls-2" d="M555.31,171.13v10.02c0,.64.02,1.16-.51,1.72-.4.42-1.06.88-1.95.31-.32-.2-.46-.47-.54-.74-.1-.31-.14-.64-.14-.97l.07-10.32c.01-.59.3-1.15.83-1.49.41-.26.94-.38,1.51.03.47.34.73.88.73,1.43Z"/>
          </g>
          <g>
            <path class="cls-2" d="M568.42,146.7h10.02c.64,0,1.16-.02,1.72.51.42.4.88,1.06.31,1.95-.2.32-.47.46-.74.54-.31.1-.64.14-.97.14l-10.32-.07c-.59-.01-1.15-.3-1.49-.83-.26-.41-.38-.94.03-1.51.34-.47.88-.73,1.43-.73Z"/>
            <path class="cls-2" d="M579.17,162.97v-10.02c0-.64-.02-1.16.51-1.72.4-.42,1.06-.88,1.95-.31.32.2.46.47.54.74.1.31.14.64.14.97l-.07,10.32c-.01.59-.3,1.15-.83,1.49-.41.26-.94.38-1.51-.03-.47-.34-.73-.88-.73-1.43Z"/>
            <path class="cls-2" d="M565.16,162.97v-10.02c0-.64-.02-1.16.51-1.72.4-.42,1.06-.88,1.95-.31.32.2.46.47.54.74.1.31.14.64.14.97l-.07,10.32c-.01.59-.3,1.15-.83,1.49-.41.26-.94.38-1.51-.03-.47-.34-.73-.88-.73-1.43Z"/>
            <path class="cls-2" d="M579.04,187.4h-10.02c-.64,0-1.16.02-1.72-.51-.42-.4-.88-1.06-.31-1.95.2-.32.47-.46.74-.54.31-.1.64-.14.97-.14l10.32.07c.59.01,1.15.3,1.49.83.26.41.38.94-.03,1.51-.34.47-.88.73-1.43.73Z"/>
            <path class="cls-2" d="M568.29,171.13v10.02c0,.64.02,1.16-.51,1.72-.4.42-1.06.88-1.95.31-.32-.2-.46-.47-.54-.74-.1-.31-.14-.64-.14-.97l.07-10.32c.01-.59.3-1.15.83-1.49.41-.26.94-.38,1.51.03.47.34.73.88.73,1.43Z"/>
            <path class="cls-2" d="M582.31,171.13v10.02c0,.64.02,1.16-.51,1.72-.4.42-1.06.88-1.95.31-.32-.2-.46-.47-.54-.74-.1-.31-.14-.64-.14-.97l.07-10.32c.01-.59.3-1.15.83-1.49.41-.26.94-.38,1.51.03.47.34.73.88.73,1.43Z"/>
          </g>
          <path class="cls-2" d="M531.09,187.4h-3.05c-.19,0-.35.02-.52-.51-.13-.4-.27-1.06-.09-1.95.06-.32.14-.46.22-.54.1-.1.2-.14.3-.14l3.14.07c.18.01.35.3.45.83.08.41.12.94,0,1.51-.1.47-.27.73-.44.73Z"/>
          <g>
            <path class="cls-2" d="M595.87,146.7h10.02c.64,0,1.16-.02,1.72.51.42.4.88,1.06.31,1.95-.2.32-.47.46-.74.54-.31.1-.64.14-.97.14l-10.32-.07c-.59-.01-1.15-.3-1.49-.83-.26-.41-.38-.94.03-1.51.34-.47.88-.73,1.43-.73Z"/>
            <path class="cls-2" d="M606.62,162.97v-10.02c0-.64-.02-1.16.51-1.72.4-.42,1.06-.88,1.95-.31.32.2.46.47.54.74.1.31.14.64.14.97l-.07,10.32c-.01.59-.3,1.15-.83,1.49-.41.26-.94.38-1.51-.03-.47-.34-.73-.88-.73-1.43Z"/>
            <path class="cls-2" d="M592.6,162.97v-10.02c0-.64-.02-1.16.51-1.72.4-.42,1.06-.88,1.95-.31.32.2.46.47.54.74.1.31.14.64.14.97l-.07,10.32c-.01.59-.3,1.15-.83,1.49-.41.26-.94.38-1.51-.03-.47-.34-.73-.88-.73-1.43Z"/>
            <path class="cls-2" d="M606.49,187.4h-10.02c-.64,0-1.16.02-1.72-.51-.42-.4-.88-1.06-.31-1.95.2-.32.47-.46.74-.54.31-.1.64-.14.97-.14l10.32.07c.59.01,1.15.3,1.49.83.26.41.38.94-.03,1.51-.34.47-.88.73-1.43.73Z"/>
            <path class="cls-2" d="M595.74,171.13v10.02c0,.64.02,1.16-.51,1.72-.4.42-1.06.88-1.95.31-.32-.2-.46-.47-.54-.74-.1-.31-.14-.64-.14-.97l.07-10.32c.01-.59.3-1.15.83-1.49.41-.26.94-.38,1.51.03.47.34.73.88.73,1.43Z"/>
            <path class="cls-2" d="M609.75,171.13v10.02c0,.64.02,1.16-.51,1.72-.4.42-1.06.88-1.95.31-.32-.2-.46-.47-.54-.74-.1-.31-.14-.64-.14-.97l.07-10.32c.01-.59.3-1.15.83-1.49.41-.26.94-.38,1.51.03.47.34.73.88.73,1.43Z"/>
          </g>
        </g>
      </g>
    </g>
  </g>
</svg>