<?xml version="1.0" encoding="UTF-8"?>
<svg xmlns="http://www.w3.org/2000/svg" version="1.1" viewBox="0 0 108.2 146.4">
  <defs>
    <style>
      .cls-1 {
        fill: none;
      }

      .cls-1, .cls-2, .cls-3, .cls-4, .cls-5, .cls-6, .cls-7, .cls-8, .cls-9, .cls-10, .cls-11, .cls-12 {
        stroke: #000;
        stroke-miterlimit: 10;
      }

      .cls-1, .cls-4, .cls-6, .cls-7, .cls-8, .cls-9, .cls-11, .cls-12 {
        stroke-width: .5px;
      }

      .cls-2 {
        font-size: 2.7px;
      }

      .cls-2, .cls-3, .cls-5, .cls-13, .cls-10, .cls-12 {
        isolation: isolate;
      }

      .cls-2, .cls-3, .cls-5, .cls-10 {
        font-family: LucidaFax, 'Lucida Fax';
        stroke-width: .2px;
      }

      .cls-3 {
        font-size: 2.4px;
      }

      .cls-4 {
        fill: #c63;
      }

      .cls-5 {
        font-size: 2.1px;
      }

      .cls-6 {
        fill: #de5441;
      }

      .cls-7 {
        fill: #f9af2d;
      }

      .cls-8 {
        fill: #e47228;
      }

      .cls-9 {
        fill: #1e1e1c;
      }

      .cls-10 {
        font-size: 2.3px;
      }

      .cls-11 {
        fill: #6cc2be;
      }

      .cls-12 {
        fill: #00995e;
        font-family: Migoes, Migoes;
        font-size: 23.1px;
      }
    </style>
  </defs>
  <!-- Generator: Adobe Illustrator 28.6.0, SVG Export Plug-In . SVG Version: 1.2.0 Build 709)  -->
  <g>
    <g id="Laag_1">
      <path class="cls-8" d="M58,53.2"/>
      <path class="cls-11" d="M12.5,34"/>
      <path class="cls-11" d="M23.6,37.9"/>
      <path class="cls-7" d="M24,41.4c5.5,14.5,21.3,15.3,24.3,15.3s1,0,1.6,0c4.8.6,25.1,2.5,34.3-3.3,6.1-3.9,8.7-8.7,9.7-11.9.6-1.8-.7-3.7-2.6-3.8-12.3-.6-52.6-1.3-64.3-1.3s-4.1,2.1-3,4.9h0Z"/>
      <path class="cls-11" d="M48.2,56.7s-7-3.9-7.8-8.4c0,0-4.6-4.2-5.5-.7,0,0,1,5,4.8,7.5l8.5,1.7Z"/>
      <path class="cls-11" d="M80,55.2c3.6-2.3,4.6-7,4.6-7-.9-3.2-5.3.7-5.3.7-.8,4.2-7.6,8.2-7.6,8.2l8.3-1.9h0Z"/>
      <path class="cls-11" d="M49.7,57.7v7.6c0,.2-.1.4-.3.4l-1.6.4c-.3,0-.5-.1-.5-.4v-6.1c0-.3,1-1.6,2.4-1.8,4.4-.5,13.3.6,13.9.7,1,.1,1.5,0,2.6,1.8.8,1.3.4,5.5.1,7.5,0,.5.4,1,.9.9l3.2-.3c.6,0,1-.5,1-1.1.2-2.1.6-7,.2-8.2,0,0,0-.2,0-.3,0-.6-.6-2.2-3-2.2l-20-.4c-1.2.5-1.3,3.4-1.3,3.4"/>
      <path class="cls-1" d="M91.5,123.8"/>
      <path class="cls-1" d="M92.8,123.3"/>
      <path class="cls-1" d="M93.1,120.4"/>
      <path class="cls-8" d="M67.4,70.3s18.9-6.5,18.9-1.9l-.3,50.2h.9c0,0,5.8.5,6.1,1.6s.2,1.9.2,1.9v1.3c0,.2-.1.4-.3.5l-5.4,1.6-39,14.9s-3.4,1.3-6,.3-11.5-3.3-11.5-3.3h-2.2c-.4,0-.7,0-1.1-.2-1.3-.3-5.2-1.3-7.4-2.6,0,0,.3.2.3.2"/>
      <path class="cls-8" d="M38.3,70.9s5.4-3.2,12.6-.3c7.2,2.9,9.4,10.2,9.4,10.2,7.5,18.3-11.2,51.3-32.5,46.6"/>
      <path class="cls-1" d="M60.6,81.2"/>
      <path class="cls-4" d="M20.6,134.9s-1.3-.6-1.4-1.5c-.3-.1-.6-.3-.8-.4-.6-.3-1.3-.6-2-.9-.8-.3-1.6-.7-2.4-1.1-.7-.3-1.4-.6-2.1-1-.2-.1-.5-.2-.7-.3,0,0-.3,0-.3-.2,0,0,0-.2,0-.3,0-.2,0-.4,0-.6,0-.5,0-1,0-1.4,0-.2,0-.4.3-.6.6-.6,7.4-3.1,8-2.9.1-.3.2-.5.3-.8.2-.3.3-.7.5-1,0-.2-.2-.4-.3-.6s-.2-.3-.3-.5c-.3-.4-.5-.9-.7-1.3-.3-.6-.6-1.2-.9-1.9-.3-.8-.6-1.6-.9-2.3-.3-.9-.6-1.8-.8-2.8-.2-1-.4-2.1-.6-3.2-.1-1.2-.2-2.4-.2-3.5s0-2.6.2-3.9c.2-1.4.4-2.8.8-4.2.4-1.5.9-3,1.4-4.5.3-.7.6-1.4.9-2.2,8.2-17.7,19.4-20.1,19.4-20.1,0,0-.9-5,9.3-6.1,10.2-1.1,11.8-1.7,11.8-1.7l25.7,3.8h0l-16.5,3c-.9.2-1.6.7-1.9,1.6l-3.6,9.4"/>
      <path class="cls-4" d="M62.7,80.7c10.4,17.7-8.5,54.3-33.3,47.4,0,0-8-3.2-9.8-6.4"/>
      <path class="cls-8" d="M61.1,95.3s1.8-17.3-12.1-19.2h0c-.5,0-10.4-1.8-19.2,9.3-4.5,5.8-7,12.9-7.2,20.2-.1,6.7,1.6,15.3,10,17.6"/>
      <path class="cls-8" d="M32.6,123.3s.8.2,2.7.2c5.9,0,9.3-1.4,14.1-5.1,5.6-4.2,11-13,11.7-23.2"/>
      <path class="cls-1" d="M62.8,80.8"/>
      <path class="cls-1" d="M62.8,80.8"/>
      <path class="cls-1" d="M60.3,80.8s1.5-1,2.7.2"/>
      <path class="cls-1" d="M92.8,120.9l-42.6,16.4s-3.5,1.8-8.6.4c0,.5-21.6-6.9-24.8-8.2-3.7-1.4-6-2.2-5.8-3"/>
      <path class="cls-6" d="M54.7,120.1c-2,2.1.6,3.9,3.3,3.5.7-.1,3.9-1,4.6-1.3,3.7-1.3,13.5-4.5,16.1-5.4,3.4-1.1,3.4-4.1,3.4-4.1,0,0,.8-34.2.8-36.6s-2.7-1.8-2.7-1.8l-8,1c-2.7.7-3.1,1.7-3.1,1.7l-3.9,9.9s3,18.7-10.5,33.1h0Z"/>
      <path class="cls-1" d="M82.9,76s-5.6.6-8.4,1c-.8.1-1.4.2-1.9.4-1.2.4-2,1.4-2.4,2.6l-4.5,12.2"/>
      <path class="cls-1" d="M57.1,117.1l-.4,2.3c0,.3,0,1-.1,1.3,0,.4-.2,1.5,1.2,1.1,3.1-.8,24.1-8,24.1-8"/>
      <path class="cls-1" d="M55.2,120.7"/>
      <path class="cls-1" d="M55.2,121.9"/>
      <g class="cls-13">
        <g class="cls-13">
          <text class="cls-2" transform="translate(46.9 80.5) rotate(19.6)"><tspan x="0" y="0">3kg</tspan></text>
        </g>
      </g>
      <path class="cls-1" d="M48.1,125.2s-2.9,7.1-2.1,8.3c.3.4,36.5-13.6,40.1-15"/>
      <path class="cls-6" d="M39.9,107.3s-3,1-5.1-1.2l3.7-5.6s-1.1-3,1.7-3.8h.3c0,0,5.1-13.3,5.1-13.3,0,0,0-.7.6-1.2,0,0,1.7-3.7,2.3-4.4h0c0,.3-1.1,3.5-1.6,4.6,0,0,0,.6-.4,1.3l-4.8,13.1s.1.6.3,1,1.2,1.9-1.6,3.4l-.5,6h0Z"/>
      <path class="cls-11" d="M38.8,99.9c1.2.2,2.4-1,2-2.1-.3-.7-1.3-.9-1.8-.3-.4.4-.8,1-.8,1.7,0,.3.3.6.6.7Z"/>
      <ellipse class="cls-1" cx="39.2" cy="98.5" rx=".6" ry=".4" transform="translate(-63.6 72.5) rotate(-54.1)"/>
      <path class="cls-1" d="M50.8,117.9"/>
      <path class="cls-1" d="M61.7,90"/>
      <path class="cls-1" d="M61.7,92"/>
      <path class="cls-1" d="M61.2,94"/>
      <path class="cls-1" d="M61.7,94.6"/>
      <g class="cls-13">
        <g class="cls-13">
          <text class="cls-3" transform="translate(47.4 111.5) rotate(19.6)"><tspan x="0" y="0">1kg</tspan></text>
        </g>
      </g>
      <g class="cls-13">
        <g class="cls-13">
          <text class="cls-10" transform="translate(24.8 106) rotate(19.6)"><tspan x="0" y="0">2kg</tspan></text>
        </g>
      </g>
      <g class="cls-13">
        <g class="cls-13">
          <text class="cls-5" transform="translate(31.5 118.9) rotate(19.6)"><tspan x="0" y="0">500</tspan></text>
        </g>
      </g>
      <line class="cls-1" x1="22.7" y1="106.7" x2="24.4" y2="106"/>
      <line class="cls-1" x1="51.5" y1="113.9" x2="52.5" y2="115.3"/>
      <line class="cls-1" x1="49.8" y1="78.7" x2="50.7" y2="76.5"/>
      <path class="cls-8" d="M84.6,67"/>
      <path class="cls-9" d="M53.9,125.6h0c0-.1,0-.2,0-.2s0,0-.2,0h-.3s0,0,0,0h0v.2h0v.2h0c0,0,0,0,0,0h.3s0,0,0,0h0v-.2h0c0,0,.2,0,.2,0Z"/>
      <path class="cls-9" d="M20.1,121.8c0,0,0-.2,0-.3,0,0,0-.2-.2-.2,0,0,0,0-.2,0s0,0-.1,0h0s0,0,0,.1v.2c0,.1.2.3.3.4,0,0,0,0,.1,0h.2s0,0,0,0v-.2h0Z"/>
      <line class="cls-1" x1="32.1" y1="123.1" x2="33" y2="120.9"/>
      <path class="cls-7" d="M92.1,37.9s-31.5,9.1-66.3-1.1"/>
      <g class="cls-13">
        <g class="cls-13">
          <text class="cls-12" transform="translate(3.1 21.5)"><tspan x="0" y="0">Vintastic</tspan></text>
        </g>
      </g>
    </g>
  </g>
</svg>