<?xml version="1.0" encoding="UTF-8"?>
<svg xmlns="http://www.w3.org/2000/svg" version="1.1" viewBox="0 0 77.8 80">
  <defs>
    <style>
      .cls-1 {
        fill: none;
        stroke: #1d1d1b;
        stroke-miterlimit: 10;
        stroke-width: .5px;
      }
    </style>
  </defs>
  <!-- Generator: Adobe Illustrator 28.6.0, SVG Export Plug-In . SVG Version: 1.2.0 Build 709)  -->
  <g>
    <g id="Laag_1">
      <g>
        <path class="cls-1" d="M42.8,25.7s-.6-2.7.8-3.5-.8-4.8-1.6-5.5,1.5-3,1.6-4.4,1.2-3.7-1.8-5.5.3,2.9-.9,4.1-4.4,5.5-2.1,7.6c2.3,2.2-.8,4.5-.8,4.5,0,0-1.8,1.3-.4,2.7"/>
        <path class="cls-1" d="M49.8,29.3s.9-2.6,2.4-2.6,1.8-4.5,1.5-5.6,2.8-1.8,3.7-2.9,2.9-2.6,1.3-5.7-1.3,2.6-2.9,3-6.6,2.4-5.7,5.4-3,3.4-3,3.4c0,0-2.2.1-1.7,2.1"/>
        <path class="cls-1" d="M53.6,35.6s2.1-1.8,3.4-1,3.8-3.1,4-4.1,3.4-.2,4.6-.7,3.8-.8,3.9-4.3-2.4,1.7-4,1.2-6.9-1.2-7.7,1.9-4.3,1.5-4.3,1.5c0,0-2-1-2.5,1"/>
        <path class="cls-1" d="M53.7,42.8s2.7-.3,3.4,1.1,4.9-.4,5.6-1.1,2.9,1.7,4.2,2,3.6,1.5,5.7-1.3c2.1-2.8-2.9,0-4-1.3s-5-4.8-7.4-2.8c-2.4,2.1-4.4-1.2-4.4-1.2,0,0-1.1-1.9-2.6-.6"/>
        <path class="cls-1" d="M48.9,50s2.4,1.3,2.2,2.8,4.2,2.4,5.3,2.2,1.4,3.1,2.4,4,2.1,3.2,5.4,2.1-2.4-1.6-2.6-3.3-1.4-6.8-4.6-6.4c-3.1.4-3-3.5-3-3.5,0,0,.2-2.2-1.8-2"/>
        <path class="cls-1" d="M42.9,52.6s1.5,2.3.6,3.5,2.6,4.1,3.6,4.5-.2,3.4.1,4.7.3,3.9,3.8,4.4c3.5.6-1.4-2.6-.7-4.1s2-6.7-.9-7.8c-2.9-1.2-.9-4.5-.9-4.5,0,0,1.2-1.8-.6-2.6"/>
        <path class="cls-1" d="M35.9,51.7s.1,2.7-1.3,3.3,0,4.9.7,5.7-1.9,2.8-2.3,4.1-1.7,3.5.9,5.7.2-2.9,1.5-3.9,5.2-4.7,3.3-7.2c-1.9-2.5,1.5-4.3,1.5-4.3,0,0,2-1,.8-2.6"/>
        <path class="cls-1" d="M29,46.7s-1.4,2.4-2.9,2-2.7,4.1-2.6,5.1-3.1,1.2-4.2,2.1-3.4,1.9-2.4,5.3,1.8-2.3,3.4-2.3,6.9-1,6.7-4.1c-.2-3.1,3.7-2.7,3.7-2.7,0,0,2.2.3,2.1-1.7"/>
        <path class="cls-1" d="M26.7,39.9s-2.4,1.3-3.5.2-4.4,2.1-4.9,3.1-3.3-.6-4.6-.4-3.9-.1-4.8,3.3,2.7-1.1,4.2-.2,6.4,2.7,7.9,0c1.5-2.8,4.6-.4,4.6-.4,0,0,1.7,1.4,2.7-.3"/>
        <path class="cls-1" d="M28.2,32.9s-2.7-.1-3.2-1.6-4.9-.4-5.7.2-2.6-2.2-3.8-2.7-3.3-2-5.8.4,2.9.4,3.7,1.9,4.2,5.6,6.8,3.9,4.2,1.9,4.2,1.9c0,0,.8,2.1,2.5,1.1"/>
        <path class="cls-1" d="M34.5,26.8s-2.1-1.8-1.5-3.2-3.6-3.3-4.6-3.4-.7-3.3-1.4-4.5-1.3-3.6-4.8-3.3c-3.5.4,2,2.1,1.7,3.8s-.2,7,3,7.3,2.1,4.1,2.1,4.1c0,0-.7,2.1,1.3,2.4"/>
      </g>
    </g>
  </g>
</svg>